{
    "asset": {
        "version": "2.0",
        "generator": "Open Asset Import Library (assimp v5.4.0)"
    },
    "extensionsUsed": [
        "KHR_materials_volume",
        "FB_ngon_encoding"
    ],
    "accessors": [
        {
            "bufferView": 0,
            "byteOffset": 0,
            "componentType": 5126,
            "count": 689186,
            "type": "VEC3",
            "max": [
                0.5554088354110718,
                1.495524525642395,
                0.43888241052627563
            ],
            "min": [
                -0.5554088354110718,
                1.3635783195495605,
                -0.46888238191604614
            ]
        },
        {
            "bufferView": 1,
            "byteOffset": 0,
            "componentType": 5126,
            "count": 689186,
            "type": "VEC3",
            "max": [
                1.0,
                1.0,
                1.0
            ],
            "min": [
                -1.0,
                -1.0,
                -1.0
            ]
        },
        {
            "bufferView": 2,
            "byteOffset": 0,
            "componentType": 5125,
            "count": 723570,
            "type": "SCALAR",
            "max": [
                689185
            ],
            "min": [
                0
            ]
        }
    ],
    "buffers": [
        {
            "byteLength": 19434744,
            "uri": "ImageToStl.bin"
        }
    ],
    "bufferViews": [
        {
            "buffer": 0,
            "byteOffset": 0,
            "byteLength": 8270232,
            "target": 34962
        },
        {
            "buffer": 0,
            "byteOffset": 8270232,
            "byteLength": 8270232,
            "target": 34962
        },
        {
            "buffer": 0,
            "byteOffset": 16540464,
            "byteLength": 2894280,
            "target": 34963
        }
    ],
    "materials": [
        {
            "name": "x1",
            "pbrMetallicRoughness": {
                "baseColorFactor": [
                    0.8500000238418579,
                    0.8500000238418579,
                    0.8500000238418579,
                    1.0
                ],
                "metallicFactor": 0.05000000074505806,
                "roughnessFactor": 0.5
            },
            "doubleSided": true
        }
    ],
    "meshes": [
        {
            "name": "meshes[0]",
            "primitives": [
                {
                    "mode": 4,
                    "material": 0,
                    "indices": 2,
                    "attributes": {
                        "POSITION": 0,
                        "NORMAL": 1
                    }
                }
            ]
        }
    ],
    "nodes": [
        {
            "name": "ImageToStl.com_uploads_files_4318187_drone",
            "children": [
                1
            ]
        },
        {
            "name": "Node0",
            "children": [
                2
            ],
            "extras": {
                "name": "Node0"
            }
        },
        {
            "name": "Node1",
            "mesh": 0,
            "extras": {
                "name": "Node1"
            }
        }
    ],
    "scenes": [
        {
            "nodes": [
                0
            ]
        }
    ],
    "scene": 0
}