<?xml version="1.0" encoding="UTF-8"?>
<svg version="1.1" xmlns="http://www.w3.org/2000/svg" width="96" height="96">
<path d="M0 0 C5.01791684 2.41935276 8.49958655 5.9991731 11 11 C11.13860991 15.00305407 11.04262206 18.99352624 11 23 C14.96 23 18.92 23 23 23 C22.9175 21.14375 22.835 19.2875 22.75 17.375 C22.75629499 12.02426042 23.25303176 9.05077648 27 5 C32.48391476 0.16893223 35.80539399 -0.35024743 43.015625 -0.28125 C48.34102075 0.22061976 50.9022045 2.75385376 54.3125 6.625 C57.95019722 11.74472202 57.57769859 16.86997606 57 23 C54.58064724 28.01791684 51.0008269 31.49958655 46 34 C43.95944995 34.07065617 41.91665743 34.08421976 39.875 34.0625 C37.93625 34.041875 35.9975 34.02125 34 34 C34 37.96 34 41.92 34 46 C35.85625 45.9175 37.7125 45.835 39.625 45.75 C44.97573958 45.75629499 47.94922352 46.25303176 52 50 C56.83106777 55.48391476 57.35024743 58.80539399 57.28125 66.015625 C56.77938024 71.34102075 54.24614624 73.9022045 50.375 77.3125 C45.25527798 80.95019722 40.13002394 80.57769859 34 80 C28.98208316 77.58064724 25.50041345 74.0008269 23 69 C22.86139009 64.99694593 22.95737794 61.00647376 23 57 C19.04 57 15.08 57 11 57 C11.0825 58.85625 11.165 60.7125 11.25 62.625 C11.24370501 67.97573958 10.74696824 70.94922352 7 75 C1.51608524 79.83106777 -1.80539399 80.35024743 -9.015625 80.28125 C-14.34102075 79.77938024 -16.9022045 77.24614624 -20.3125 73.375 C-23.95019722 68.25527798 -23.57769859 63.13002394 -23 57 C-20.58064724 51.98208316 -17.0008269 48.50041345 -12 46 C-9.95944995 45.92934383 -7.91665743 45.91578024 -5.875 45.9375 C-3.93625 45.958125 -1.9975 45.97875 0 46 C0 42.04 0 38.08 0 34 C-2.784375 34.12375 -2.784375 34.12375 -5.625 34.25 C-10.97573958 34.24370501 -13.94922352 33.74696824 -18 30 C-22.83106777 24.51608524 -23.35024743 21.19460601 -23.28125 13.984375 C-22.77938024 8.65897925 -20.24614624 6.0977955 -16.375 2.6875 C-11.25527798 -0.95019722 -6.13002394 -0.57769859 0 0 Z " fill="#667077" transform="translate(31,8)"/>
<path d="M0 0 C5.01791684 2.41935276 8.49958655 5.9991731 11 11 C11.07065617 13.04055005 11.08421976 15.08334257 11.0625 17.125 C11.05347656 18.22070312 11.04445312 19.31640625 11.03515625 20.4453125 C11.02355469 21.28835937 11.01195312 22.13140625 11 23 C11.66 23.33 12.32 23.66 13 24 C9.04 27.96 5.08 31.92 1 36 C0.67 35.34 0.34 34.68 0 34 C-0.79664062 34.04640625 -1.59328125 34.0928125 -2.4140625 34.140625 C-13.12906704 34.50561299 -13.12906704 34.50561299 -18 30 C-22.83106777 24.51608524 -23.35024743 21.19460601 -23.28125 13.984375 C-22.77938024 8.65897925 -20.24614624 6.0977955 -16.375 2.6875 C-11.25527798 -0.95019722 -6.13002394 -0.57769859 0 0 Z " fill="#D0DAE2" transform="translate(31,8)"/>
<path d="M0 0 C1.09570312 0.00902344 2.19140625 0.01804688 3.3203125 0.02734375 C4.16335937 0.03894531 5.00640625 0.05054688 5.875 0.0625 C4.6317822 3.71174629 3.46779629 5.80236356 0.4375 8.1875 C-3.05942889 10.9009958 -3.05942889 10.9009958 -6.125 14.0625 C-5.93362516 19.10815002 -5.93362516 19.10815002 -3.125 23.0625 C-0.20961971 23.56292146 -0.20961971 23.56292146 2.875 23.0625 C4.97558607 21.40749279 6.45225892 19.62382176 8.0546875 17.49609375 C10.86384351 13.87559766 12.3806207 12.6852604 16.875 12.0625 C17.49829486 21.79282529 17.49829486 21.79282529 15.1875 26.5 C11.78956392 30.26528052 8.48764873 33.8239198 3.265625 34.30078125 C-7.27381343 34.54984758 -7.27381343 34.54984758 -12.125 30.0625 C-16.95606777 24.57858524 -17.47524743 21.25710601 -17.40625 14.046875 C-16.90438024 8.72147925 -14.37114624 6.1602955 -10.5 2.75 C-6.70932903 0.05662852 -4.63835226 -0.04934417 0 0 Z " fill="#CDD6DF" transform="translate(25.125,53.9375)"/>
<path d="M0 0 C9.73032529 -0.62329486 9.73032529 -0.62329486 14.4375 1.6875 C18.20278052 5.08543608 21.7614198 8.38735127 22.23828125 13.609375 C22.48734758 24.14881343 22.48734758 24.14881343 18 29 C12.51608524 33.83106777 9.19460601 34.35024743 1.984375 34.28125 C-3.34102075 33.77938024 -5.9022045 31.24614624 -9.3125 27.375 C-11.90185444 23.73072338 -12.11419247 21.82055257 -12.0625 17.375 C-12.05347656 16.37210938 -12.04445312 15.36921875 -12.03515625 14.3359375 C-12.02355469 13.56507812 -12.01195312 12.79421875 -12 12 C-9.18146532 12.35351113 -7.44844776 12.59701699 -5.3046875 14.5234375 C-4.59699219 15.43996094 -4.59699219 15.43996094 -3.875 16.375 C-1.17226269 19.91105539 -1.17226269 19.91105539 2 23 C5.57756686 23.00082535 5.57756686 23.00082535 9 22 C11.2837984 19.14080976 11.2837984 19.14080976 11.125 15.6875 C9.72164343 11.08760902 7.83548678 9.89552322 3.91015625 7.359375 C2 6 2 6 0 3 C0 2.01 0 1.02 0 0 Z " fill="#CBD5DE" transform="translate(66,54)"/>
<path d="M0 0 C5.01791684 2.41935276 8.49958655 5.9991731 11 11 C11.5072965 16.55531248 11.76260422 21.41830236 9.3125 26.5 C6.49632559 29.54451287 3.72772191 32.13613904 0 34 C-1.87379605 34.07033769 -3.75001102 34.0843022 -5.625 34.0625 C-6.62789062 34.05347656 -7.63078125 34.04445312 -8.6640625 34.03515625 C-9.43492188 34.02355469 -10.20578125 34.01195312 -11 34 C-10.64648887 31.18146532 -10.40298301 29.44844776 -8.4765625 27.3046875 C-7.86554688 26.83289063 -7.25453125 26.36109375 -6.625 25.875 C-1.68497487 22.34816731 -1.68497487 22.34816731 0.4375 17 C0.25733209 13.98282583 0.25733209 13.98282583 -1.5625 12.0625 C-5.26638994 10.44798387 -7.16217029 10.74277992 -11 12 C-12.79894668 13.91608739 -14.21523507 15.88369248 -15.640625 18.08984375 C-17 20 -17 20 -20 22 C-20.99 22 -21.98 22 -23 22 C-23.62329486 12.26967471 -23.62329486 12.26967471 -21.3125 7.5625 C-14.70083854 0.23606433 -9.6650778 -0.91084503 0 0 Z " fill="#CED8E1" transform="translate(77,8)"/>
<path d="M0 0 C1.9375 1.1875 1.9375 1.1875 3 3 C3.5 5.875 3.5 5.875 3 9 C0.68747509 11.7750299 -1.69113485 13.77938204 -4.625 15.875 C-7.73266238 18.65554003 -8.57848618 21.10954112 -10 25 C-10.66 25 -11.32 25 -12 25 C-12 24.34 -12 23.68 -12 23 C-12.66 23 -13.32 23 -14 23 C-14 22.34 -14 21.68 -14 21 C-14.556875 20.773125 -15.11375 20.54625 -15.6875 20.3125 C-18.66159588 18.62449964 -20.72008865 16.53323483 -23 14 C-23 13.34 -23 12.68 -23 12 C-21.80375 11.505 -20.6075 11.01 -19.375 10.5 C-15.0556768 8.37863027 -12.85667114 5.66688756 -10.2265625 1.70703125 C-7.45560512 -2.14936484 -4.21644306 -0.88767222 0 0 Z " fill="#717B82" transform="translate(75,19)"/>
<path d="M0 0 C2.5625 2.125 2.5625 2.125 5 5 C5.46921875 5.55042969 5.9384375 6.10085937 6.421875 6.66796875 C7.63119727 8.09809424 8.81769772 9.5474572 10 11 C8.44499019 14.81684226 5.96404505 17.19195732 3 20 C-7.78199181 14.81495225 -7.78199181 14.81495225 -9.87890625 9.96875 C-10.48618938 6.54239467 -10.28160063 4.45056102 -8.4375 1.5 C-5.25953443 -0.45567112 -3.67330696 -0.67468903 0 0 Z " fill="#798286" transform="translate(28,18)"/>
<path d="M0 0 C7.48291572 5.0022779 7.48291572 5.0022779 10 9 C9.2575 9.53625 8.515 10.0725 7.75 10.625 C4.82225302 13.15350875 3.08443526 15.7655315 1 19 C-1.87470493 20.43735246 -3.81894588 20.38172649 -7 20 C-10.17489516 17.31355025 -10.9287463 15.76953997 -11.3125 11.625 C-9.3800112 6.28764998 -5.5733955 4.11342693 -1 1 C-0.67 0.67 -0.34 0.34 0 0 Z " fill="#606B74" transform="translate(29,58)"/>
<path d="M0 0 C1.71531995 1.43849598 3.41788786 2.88832689 5.10546875 4.359375 C6.71080486 5.74956297 8.35183523 7.09836613 10 8.4375 C12 11 12 11 12.0625 14.625 C11 18 11 18 9.375 20 C5.64579088 21.57019331 3.84819078 21.30447145 0 20 C-2.67535921 17.22215727 -4.80296904 14.15931892 -7 11 C-7.66 10.34 -8.32 9.68 -9 9 C-8.43410156 8.51789063 -7.86820313 8.03578125 -7.28515625 7.5390625 C-6.55167969 6.90742187 -5.81820312 6.27578125 -5.0625 5.625 C-4.33160156 4.99851562 -3.60070313 4.37203125 -2.84765625 3.7265625 C-0.91619094 2.12252286 -0.91619094 2.12252286 0 0 Z " fill="#59646E" transform="translate(66,57)"/>
<path d="M0 0 C0.66 0 1.32 0 2 0 C2.9375 3.0625 2.9375 3.0625 3 7 C1.1629297 10.03490923 -0.96509077 12.1629297 -4 14 C-7.9375 13.9375 -7.9375 13.9375 -11 13 C-9.44396229 9.18063472 -7.04395069 6.73955562 -4 4 C-3.34 4 -2.68 4 -2 4 C-2 3.34 -2 2.68 -2 2 C-1.34 2 -0.68 2 0 2 C0 1.34 0 0.68 0 0 Z " fill="#D66711" transform="translate(63,52)"/>
<path d="M0 0 C3.63061667 1.53218685 5.9863773 3.7183144 8.75 6.5 C9.94882812 7.69109375 9.94882812 7.69109375 11.171875 8.90625 C13 11 13 11 13 13 C10.69 13.33 8.38 13.66 6 14 C5.67 13.01 5.34 12.02 5 11 C3.06669397 9.90833725 3.06669397 9.90833725 1 9 C0.34 8.34 -0.32 7.68 -1 7 C-0.625 3.375 -0.625 3.375 0 0 Z " fill="#DF8D0F" transform="translate(31,52)"/>
<path d="M0 0 C2.52719298 1.66424904 4.43803042 3.39479613 6 6 C5.875 9.875 5.875 9.875 5 13 C4.34 13 3.68 13 3 13 C3 12.34 3 11.68 3 11 C2.34 11 1.68 11 1 11 C1 10.34 1 9.68 1 9 C0.443125 8.773125 -0.11375 8.54625 -0.6875 8.3125 C-3.66159588 6.62449964 -5.72008865 4.53323483 -8 2 C-8 1.34 -8 0.68 -8 0 C-4.94806967 -1.52596516 -3.25267576 -0.93827185 0 0 Z " fill="#E18F11" transform="translate(60,31)"/>
<path d="M0 0 C0.825 0.33 1.65 0.66 2.5 1 C-1.4419417 5.88049925 -5.61950075 10.0580583 -10.5 14 C-11.5 11.5 -11.5 11.5 -11.5 8 C-8.48483286 3.55948112 -5.54594101 0 0 0 Z " fill="#F6BC06" transform="translate(41.5,30)"/>
</svg>
