<?xml version="1.0" encoding="UTF-8"?>
<svg version="1.1" xmlns="http://www.w3.org/2000/svg" width="90" height="90">
<path d="M0 0 C3.40177304 2.80908663 5.02644142 5.70661147 6.77734375 9.71484375 C7.28499268 10.86251221 7.7926416 12.01018066 8.31567383 13.19262695 C8.85669146 14.4407408 9.39728994 15.68903641 9.9375 16.9375 C10.79036866 18.88612075 11.64570683 20.8336453 12.50120544 22.78111267 C13.09299035 24.12896305 13.68360208 25.47732907 14.27308655 26.82618713 C16.36843297 31.6087735 18.53757018 36.35287201 20.7421875 41.0859375 C21.64219895 43.03348871 22.54094181 44.98161997 23.4392395 46.92996216 C24.01649283 48.17438034 24.59867163 49.4165268 25.18600464 50.65621948 C31.02045814 62.98953557 31.02045814 62.98953557 30 70 C28 72 28 72 24.53515625 72.34765625 C18.21832946 72.18941482 12.52915893 69.60428813 6.68945312 67.40039062 C-3.0799492 63.89360734 -9.88004795 66.44663355 -19.24023438 69.91601562 C-24.38334875 71.72994068 -28.53686217 72.4737518 -34 72 C-36 70 -36 70 -36.31958008 66.34741211 C-36.19978385 61.93765784 -34.80441483 58.36708115 -32.88671875 54.44140625 C-32.56106934 53.7427243 -32.23541992 53.04404236 -31.89990234 52.32418823 C-30.84292852 50.06349075 -29.76553165 47.81322076 -28.6875 45.5625 C-27.58342981 43.21749853 -26.48439108 40.87018337 -25.38569641 38.5226593 C-24.64941185 36.9502893 -23.9113637 35.37874392 -23.17155457 33.80802917 C-20.9000233 28.97469728 -18.7042826 24.11664833 -16.59375 19.2109375 C-16.09657471 18.05650146 -15.59939941 16.90206543 -15.0871582 15.71264648 C-14.17326195 13.57416432 -13.26527366 11.43314496 -12.36401367 9.28930664 C-11.75650269 7.87572876 -11.75650269 7.87572876 -11.13671875 6.43359375 C-10.79342529 5.61947021 -10.45013184 4.80534668 -10.09643555 3.96655273 C-7.7015621 -0.32886156 -4.49833076 -0.55081601 0 0 Z M-4 9 C-16.9697913 36.79325487 -16.9697913 36.79325487 -29 65 C-20.3023064 62.42832617 -11.65873142 59.70585357 -3 57 C-3 41.16 -3 25.32 -3 9 C-3.33 9 -3.66 9 -4 9 Z " fill="#000000" transform="translate(48,9)"/>
</svg>
